<svg width="125" height="29" viewBox="0 0 125 29" fill="none" xmlns="http://www.w3.org/2000/svg">
<path d="M5.00568 16.4943V28H0.377841V8.36364H4.80114V11.7003H5.03125C5.48295 10.6009 6.20313 9.72727 7.19176 9.07955C8.18892 8.43182 9.42045 8.10795 10.8864 8.10795C12.2415 8.10795 13.4219 8.39773 14.4276 8.97727C15.4418 9.55682 16.2259 10.3963 16.7798 11.4957C17.3423 12.5952 17.6193 13.929 17.6108 15.4972V28H12.983V16.2131C12.983 14.9006 12.642 13.8736 11.9602 13.1321C11.2869 12.3906 10.3537 12.0199 9.16051 12.0199C8.35085 12.0199 7.63068 12.1989 7 12.5568C6.37784 12.9062 5.88778 13.4134 5.52983 14.0781C5.1804 14.7429 5.00568 15.5483 5.00568 16.4943ZM22.3153 28V8.36364H26.9432V28H22.3153ZM24.642 5.5767C23.9091 5.5767 23.2784 5.33381 22.75 4.84801C22.2216 4.35369 21.9574 3.76136 21.9574 3.07102C21.9574 2.37216 22.2216 1.77983 22.75 1.29403C23.2784 0.799715 23.9091 0.552556 24.642 0.552556C25.3835 0.552556 26.0142 0.799715 26.5341 1.29403C27.0625 1.77983 27.3267 2.37216 27.3267 3.07102C27.3267 3.76136 27.0625 4.35369 26.5341 4.84801C26.0142 5.33381 25.3835 5.5767 24.642 5.5767ZM31.7021 28V8.36364H36.1254V11.7003H36.3555C36.7646 10.5753 37.4421 9.69744 38.3881 9.06676C39.3342 8.42756 40.4634 8.10795 41.7759 8.10795C43.1055 8.10795 44.2262 8.43182 45.1381 9.07955C46.0586 9.71875 46.7063 10.5923 47.0813 11.7003H47.2859C47.7205 10.6094 48.4535 9.74006 49.4847 9.09233C50.5245 8.43608 51.756 8.10795 53.1793 8.10795C54.9862 8.10795 56.4606 8.67898 57.6026 9.82102C58.7447 10.9631 59.3157 12.6293 59.3157 14.8196V28H54.6751V15.5355C54.6751 14.3168 54.3512 13.4261 53.7035 12.8636C53.0558 12.2926 52.2631 12.0071 51.3256 12.0071C50.2092 12.0071 49.3356 12.3565 48.7049 13.0554C48.0827 13.7457 47.7717 14.6449 47.7717 15.7528V28H43.2333V15.3438C43.2333 14.3295 42.9265 13.5199 42.3129 12.9148C41.7077 12.3097 40.9151 12.0071 39.935 12.0071C39.2702 12.0071 38.6651 12.1776 38.1197 12.5185C37.5742 12.8509 37.1396 13.3239 36.8157 13.9375C36.4918 14.5426 36.3299 15.25 36.3299 16.0597V28H31.7021ZM64.2152 28V1.81818H68.843V11.6108H69.0348C69.2734 11.1335 69.6101 10.6264 70.0447 10.0895C70.4794 9.54403 71.0675 9.07954 71.8089 8.69602C72.5504 8.30398 73.4964 8.10795 74.647 8.10795C76.1641 8.10795 77.532 8.49574 78.7507 9.27131C79.978 10.0384 80.9496 11.1761 81.6655 12.6847C82.3899 14.1847 82.7521 16.0256 82.7521 18.2074C82.7521 20.3636 82.3984 22.196 81.6911 23.7045C80.9837 25.2131 80.0206 26.3636 78.8018 27.1562C77.5831 27.9489 76.2024 28.3452 74.6598 28.3452C73.5348 28.3452 72.6016 28.1577 71.8601 27.7827C71.1186 27.4077 70.522 26.956 70.0703 26.4276C69.6271 25.8906 69.282 25.3835 69.0348 24.9062H68.7663V28H64.2152ZM68.7536 18.1818C68.7536 19.4517 68.9325 20.5639 69.2905 21.5185C69.657 22.473 70.1811 23.2187 70.8629 23.7557C71.5533 24.2841 72.3885 24.5483 73.3686 24.5483C74.3913 24.5483 75.2479 24.2756 75.9382 23.7301C76.6286 23.1761 77.1484 22.4219 77.4979 21.4673C77.8558 20.5043 78.0348 19.4091 78.0348 18.1818C78.0348 16.9631 77.8601 15.8807 77.5107 14.9347C77.1612 13.9886 76.6413 13.2472 75.951 12.7102C75.2607 12.1733 74.3999 11.9048 73.3686 11.9048C72.38 11.9048 71.5405 12.1648 70.8501 12.6847C70.1598 13.2045 69.6357 13.9332 69.2777 14.8707C68.9283 15.8082 68.7536 16.9119 68.7536 18.1818ZM99.2021 19.7415V8.36364H103.83V28H99.3427V24.5099H99.1381C98.695 25.6094 97.9663 26.5085 96.9521 27.2074C95.9464 27.9062 94.7063 28.2557 93.2319 28.2557C91.945 28.2557 90.8072 27.9702 89.8185 27.3991C88.8384 26.8196 88.0714 25.9801 87.5174 24.8807C86.9634 23.7727 86.6864 22.4347 86.6864 20.8665V8.36364H91.3143V20.1506C91.3143 21.3949 91.6552 22.3835 92.337 23.1165C93.0188 23.8494 93.9137 24.2159 95.0217 24.2159C95.7035 24.2159 96.364 24.0497 97.0032 23.7173C97.6424 23.3849 98.1665 22.8906 98.5756 22.2344C98.9933 21.5696 99.2021 20.7386 99.2021 19.7415ZM124.109 13.554L119.89 14.0142C119.771 13.5881 119.562 13.1875 119.263 12.8125C118.974 12.4375 118.582 12.1349 118.087 11.9048C117.593 11.6747 116.988 11.5597 116.272 11.5597C115.309 11.5597 114.499 11.7685 113.843 12.1861C113.195 12.6037 112.876 13.1449 112.884 13.8097C112.876 14.3807 113.085 14.8452 113.511 15.2031C113.945 15.5611 114.661 15.8551 115.658 16.0852L119.008 16.8011C120.866 17.2017 122.246 17.8366 123.15 18.706C124.062 19.5753 124.522 20.7131 124.531 22.1193C124.522 23.3551 124.16 24.446 123.444 25.392C122.737 26.3295 121.752 27.0625 120.491 27.5909C119.229 28.1193 117.781 28.3835 116.144 28.3835C113.741 28.3835 111.806 27.8807 110.34 26.875C108.874 25.8608 108.001 24.4503 107.719 22.6435L112.232 22.2088C112.437 23.0952 112.871 23.7642 113.536 24.2159C114.201 24.6676 115.066 24.8935 116.131 24.8935C117.231 24.8935 118.113 24.6676 118.778 24.2159C119.451 23.7642 119.788 23.206 119.788 22.5412C119.788 21.9787 119.57 21.5142 119.136 21.1477C118.71 20.7812 118.045 20.5 117.141 20.304L113.792 19.6009C111.908 19.2088 110.515 18.5483 109.612 17.6193C108.708 16.6818 108.261 15.4972 108.269 14.0653C108.261 12.8551 108.589 11.8068 109.254 10.9205C109.927 10.0256 110.86 9.33523 112.053 8.84943C113.255 8.35511 114.64 8.10795 116.208 8.10795C118.509 8.10795 120.32 8.59801 121.641 9.57812C122.971 10.5582 123.793 11.8835 124.109 13.554Z" fill="#272727"/>
</svg>
